<?xml version="1.0" encoding="utf-8"?>
<!-- Generator: Adobe Illustrator 16.0.4, SVG Export Plug-In . SVG Version: 6.00 Build 0)  -->
<!DOCTYPE svg PUBLIC "-//W3C//DTD SVG 1.1//EN" "http://www.w3.org/Graphics/SVG/1.1/DTD/svg11.dtd">
<svg version="1.1" id="Layer_1" xmlns="http://www.w3.org/2000/svg" xmlns:xlink="http://www.w3.org/1999/xlink" x="0px" y="0px"
	 width="27.355px" height="48.717px" viewBox="0 0 27.355 48.717" enable-background="new 0 0 27.355 48.717" xml:space="preserve">
<path d="M25.371,17.165C28.871,5.923,26.676,0,26.676,0l-1.519,0.003c0.234,1.552,1.047,8.626-1.79,17.739
	c-1.832,5.868-2.138,10.485-2.797,16.78c-0.283,2.757,0.636,9.011,0.946,10.489c0.234,1.092-0.135,1.722-0.135,1.722l-6.335,0.015
	l-2.42,0.007l-6.138,0.012c0,0-0.384-0.604-0.158-1.649c0.308-1.479,1.227-7.768,0.916-10.564
	c-0.678-6.293-1.418-10.907-3.268-16.768C1.126,8.779,1.967,1.71,2.227,0.05L0.654,0.055c0,0-2.166,5.935,1.387,17.157
	c2.011,6.37,2.968,11.387,3.705,18.229c0.336,3.041-0.661,9.875-0.996,11.483c-0.247,1.139,0.171,1.793,0.171,1.793l7.533-0.012
	l2.634-0.007l7.522-0.015c0,0,0.402-0.688,0.149-1.875c-0.338-1.607-1.339-8.403-1.032-11.401
	C22.446,28.564,23.378,23.546,25.371,17.165z"/>
<path d="M24.007,4.813L3.357,4.857c-0.119,1.42-0.238,6.027,2.119,13.468c1.65,5.222,2.339,9.639,2.971,15.504
	c0.291,2.624-0.555,9.65-0.835,10.991c-0.075,0.35-0.057,0.619-0.019,0.8l5.138-0.011l2.184-0.004l5.307-0.013
	c0.036-0.194,0.053-0.486-0.027-0.865c-0.277-1.327-1.133-8.277-0.865-10.896c0.079-0.75,0.152-1.476,0.223-2.187
	c0.47-4.674,0.872-8.709,2.325-13.358C24.193,10.848,24.114,6.244,24.007,4.813z"/>
</svg>
